{"title":"Bheema (2015) Hindi - HD Rip - X264 - [1-3] - Team IcTv Exclusiv","uid":12018348,"size":1555257763,"categoryP":"video","categoryS":"movies","magnet":"?xt=urn:btih:691cfa19a8ceea33c55c21f54f1503aa6c184400&amp;dn=Bheema+%282015%29+Hindi+-+HD+Rip+-+X264+-+%5B1-3%5D+-+Team+IcTv+Exclusiv&amp;tr=udp%3A%2F%2Ftracker.openbittorrent.com%3A80&amp;tr=udp%3A%2F%2Fopen.demonii.com%3A1337&amp;tr=udp%3A%2F%2Ftracker.coppersurfer.tk%3A6969&amp;tr=udp%3A%2F%2Fexodus.desync.com%3A6969","seeders":9,"leechers":4,"uploader":"SS132203","files":2,"time":1434350809,"description":"Bheema (2015) Hindi - HD Rip - X264 - [1-3] - Team IcTv Exclusive\n &lt;a href=&quot;\nhttp://imgsparrow.co/image/47&quot; rel=&quot;nofollow&quot; target=&quot;_NEW&quot;&gt;\nhttp://imgsparrow.co/image/47&lt;/a&gt;\n &lt;a href=&quot;\nhttp://imgsparrow.co/image/yp&quot; rel=&quot;nofollow&quot; target=&quot;_NEW&quot;&gt;\nhttp://imgsparrow.co/image/yp&lt;/a&gt;\n\nInfo : - \n\nAll Credit Goes To Intellect Clever &amp; IcTv (Thank Them Not Me)\nExclusive First On Net\n\nMovie Info\nBanner :\nYear : 2015\nCast : Vikram,Trisha,Prakash Raj\nVideo: X264\nAudio : AC3\nGenre : Action/Drama\nSubtitles :nope\nResolution : 720 x 304\nRuntime : 2hr 45min XX\nSource : Team IcTv \n\nFormat : Matroska\nFormat version : Version 2\nFile size : 1.45 GiB\nDuration : 2h 46mn\nOverall bit rate : 1 243 Kbps\nEncoded date : UTC 2015-06-13 10:08:59\nWriting application : mkvmerge v7.7.0 ('Six Voices') 32bit built on Feb 28 2015 23:23:00\nWriting library : libebml v1.3.1 + libmatroska v1.4.2\nDURATION : 02:46:52.320000000\n\nVideo\nID : 1\nFormat : MPEG-4 Visual\nFormat profile : Advanced Simple@L5\nFormat settings, BVOP : Yes\nFormat settings, QPel : No\nFormat settings, GMC : No warppoints\nFormat settings, Matrix : Default (H.263)\nCodec ID : V_MPEG4/ISO/ASP\nCodec ID/Info : Advanced Simple Profile\nDuration : 2h 46mn\nBit rate : 1 090 Kbps\nWidth : 720 pixels\nHeight : 304 pixels\nDisplay aspect ratio : 2.35:1\nFrame rate : 23.976 fps\nColor space : YUV\nChroma subsampling : 4:2:0\nBit depth : 8 bits\nScan type : Progressive\nCompression mode : Lossy\nBits/(Pixel*Frame) : 0.208\nStream size : 1.27 GiB (88%)\n\nAudio\nID : 2\nFormat : MPEG Audio\nFormat version : Version 1\nFormat profile : Layer 3\nMode : Joint stereo\nMode extension : MS Stereo\nCodec ID : A_MPEG/L3\nCodec ID/Hint : MP3\nDuration : 2h 46mn\nBit rate mode : Constant\nBit rate : 128 Kbps\nChannel(s) : 2 channels\nSampling rate : 48.0 KHz\nCompression mode : Lossy\nStream size : 153 MiB (10%)\n\nScreens : - \n &lt;a href=&quot;\nhttp://imgsparrow.co/image/y0&quot; rel=&quot;nofollow&quot; target=&quot;_NEW&quot;&gt;\nhttp://imgsparrow.co/image/y0&lt;/a&gt; &lt;a href=&quot;\nhttp://imgsparrow.co/image/yB&quot; rel=&quot;nofollow&quot; target=&quot;_NEW&quot;&gt;\nhttp://imgsparrow.co/image/yB&lt;/a&gt; &lt;a href=&quot;\nhttp://imgsparrow.co/image/yK&quot; rel=&quot;nofollow&quot; target=&quot;_NEW&quot;&gt;\nhttp://imgsparrow.co/image/yK&lt;/a&gt; &lt;a href=&quot;\nhttp://imgsparrow.co/image/y2&quot; rel=&quot;nofollow&quot; target=&quot;_NEW&quot;&gt;\nhttp://imgsparrow.co/image/y2&lt;/a&gt; &lt;a href=&quot;\nhttp://imgsparrow.co/image/y3&quot; rel=&quot;nofollow&quot; target=&quot;_NEW&quot;&gt;\nhttp://imgsparrow.co/image/y3&lt;/a&gt; &lt;a href=&quot;\nhttp://imgsparrow.co/image/yi&quot; rel=&quot;nofollow&quot; target=&quot;_NEW&quot;&gt;\nhttp://imgsparrow.co/image/yi&lt;/a&gt; &lt;a href=&quot;\nhttp://imgsparrow.co/image/yV&quot; rel=&quot;nofollow&quot; target=&quot;_NEW&quot;&gt;\nhttp://imgsparrow.co/image/yV&lt;/a&gt; &lt;a href=&quot;\nhttp://imgsparrow.co/image/yl&quot; rel=&quot;nofollow&quot; target=&quot;_NEW&quot;&gt;\nhttp://imgsparrow.co/image/yl&lt;/a&gt; &lt;a href=&quot;\nhttp://imgsparrow.co/image/ys&quot; rel=&quot;nofollow&quot; target=&quot;_NEW&quot;&gt;\nhttp://imgsparrow.co/image/ys&lt;/a&gt; &lt;a href=&quot;\nhttp://imgsparrow.co/image/yS&quot; rel=&quot;nofollow&quot; target=&quot;_NEW&quot;&gt;\nhttp://imgsparrow.co/image/yS&lt;/a&gt;\n &lt;a href=&quot;\nhttp://imgsparrow.co/image/N2&quot; rel=&quot;nofollow&quot; target=&quot;_NEW&quot;&gt;\nhttp://imgsparrow.co/image/N2&lt;/a&gt;","torrent":{"xt":"urn:btih:691cfa19a8ceea33c55c21f54f1503aa6c184400","amp;dn":"Bheema+%282015%29+Hindi+-+HD+Rip+-+X264+-+%5B1-3%5D+-+Team+IcTv+Exclusiv","amp;tr":["udp%3A%2F%2Ftracker.openbittorrent.com%3A80","udp%3A%2F%2Fopen.demonii.com%3A1337","udp%3A%2F%2Ftracker.coppersurfer.tk%3A6969","udp%3A%2F%2Fexodus.desync.com%3A6969"],"infoHash":"691cfa19a8ceea33c55c21f54f1503aa6c184400","infoHashBuffer":{"type":"Buffer","data":[105,28,250,25,168,206,234,51,197,92,33,245,79,21,3,170,108,24,68,0]},"announce":[],"urlList":[]}}